<svg width="32" height="32" viewBox="0 0 32 32" fill="none" xmlns="http://www.w3.org/2000/svg">
<g clip-path="url(#clip0_205_6)">
<path d="M24 15.9999L12 23.9999V7.99994L24 15.9999ZM16 0.00292969C7.17524 0.00292969 0.00292969 7.17524 0.00292969 15.9999C0.00292969 24.8246 7.17524 31.9969 16 31.9969C24.8247 31.9969 31.997 24.8246 31.997 15.9999C31.997 7.17524 24.8247 0.00292969 16 0.00292969ZM16 1.99698C23.7438 1.99698 30.0029 8.25614 30.0029 15.9999C30.0029 23.7437 23.7438 30.0029 16 30.0029C8.25612 30.0029 1.99698 23.7437 1.99698 15.9999C1.99698 8.25614 8.25612 1.99698 16 1.99698Z" fill="#F4F4F2"/>
</g>
<defs>
<clipPath id="clip0_205_6">
<rect width="32" height="32" fill="white"/>
</clipPath>
</defs>
</svg>
